<svg width="32" height="32" viewBox="-1 -1.5 34 32" fill="none" xmlns="http://www.w3.org/2000/svg">
<path d="M19.5708 4.60508C20.7112 3.15239 22.0133 1.83686 23.5859 0.856203C25.628 -0.417077 28.2842 -0.478302 29.2502 2.11285C30.0551 4.27209 29.9149 6.60415 29.6174 8.84764C29.5154 9.62232 29.3382 10.3493 29.1986 11.1124C29.8999 12.4075 30.4111 14.2544 30.5767 15.7126C30.6347 16.2238 30.6474 16.761 30.6499 17.2751C30.7215 17.2928 30.7929 17.3118 30.8638 17.3319C31.2679 17.4529 31.6076 17.7291 31.8087 18.1001C32.1747 18.7815 32.0021 19.6726 31.4058 20.1641C31.2804 20.2674 31.1797 20.3235 31.0355 20.4003C31.1173 20.5011 31.1983 20.6016 31.2636 20.7141C31.4816 21.0909 31.5364 21.5403 31.4154 21.9586C31.2974 22.3799 31.014 22.7354 30.6295 22.9442C30.0132 23.2847 29.4497 23.1362 28.8231 22.9517C28.6491 23.1815 28.4907 23.4168 28.3103 23.648C27.9929 24.0548 27.6508 24.4414 27.2858 24.8059C26.7142 25.3701 26.0931 25.8819 25.4304 26.3354C21.7271 28.8669 16.6367 29.4197 12.2953 28.6227C8.59777 27.944 5.32959 26.093 3.18806 22.9515C2.43651 23.1842 1.69794 23.3066 1.0515 22.732C0.728514 22.4408 0.536332 22.0319 0.518337 21.5973C0.495368 21.1176 0.650658 20.7527 0.965963 20.4015C0.931893 20.3849 0.898035 20.3678 0.86435 20.3504C0.0645459 19.9342 -0.234339 18.8885 0.198384 18.1034C0.473282 17.6048 0.830319 17.432 1.35085 17.2751C1.36487 16.847 1.35703 16.4564 1.39613 16.0252C1.55807 14.2396 2.03152 12.7375 2.79632 11.1343C2.22643 8.48807 1.82887 5.67802 2.46211 2.99942C2.86169 1.30924 3.75871 0.133103 5.5818 0.0086747C5.72693 -0.0084368 6.06158 0.011498 6.20632 0.0309717C8.69158 0.365251 10.9856 2.75433 12.4438 4.60366C12.5858 4.58628 12.8155 4.52667 12.9614 4.49465C13.2644 4.42586 13.57 4.36863 13.8773 4.32306C15.7753 4.04319 17.7098 4.13902 19.5708 4.60508Z" fill="white"/>
<path d="M26.193 1.43008C27.6946 1.38441 28.1701 2.93073 28.3434 4.14983C28.676 6.49123 28.2902 8.96394 27.7152 11.2327C28.9243 13.5653 29.5229 15.8507 29.1338 18.481C29.4042 18.5046 30.6437 18.5109 30.6374 18.8923C30.631 19.2809 30.0655 19.1226 29.8269 19.0915C29.5627 19.0556 29.2973 19.0275 29.0313 19.007C28.8611 19.6936 28.7113 20.1343 28.4265 20.7825C28.7065 20.8587 29.8968 21.1779 30.0584 21.3646C30.1037 21.417 30.1227 21.5019 30.1106 21.5693C30.0983 21.6384 30.0482 21.702 29.9877 21.7366C29.9264 21.7717 29.86 21.7817 29.7908 21.769C29.5959 21.7337 29.3902 21.6331 29.2026 21.5678C28.8713 21.4529 28.5366 21.3481 28.1989 21.2534C27.5314 22.5036 26.6222 23.6088 25.5241 24.5051C22.415 27.073 18.0329 27.817 14.1107 27.4393C10.504 27.0918 7.24609 25.7425 4.90666 22.9131C4.46668 22.3755 4.13948 21.8593 3.81657 21.2484C3.48662 21.3404 3.15954 21.4425 2.8358 21.5545C2.63029 21.6254 2.40963 21.7316 2.1959 21.7696C2.14235 21.779 2.08889 21.775 2.03849 21.7539C1.97458 21.727 1.91209 21.6624 1.88904 21.597C1.8663 21.5322 1.87681 21.4548 1.90998 21.3957C2.01687 21.2052 3.30282 20.8576 3.59297 20.7815C3.31037 20.1455 3.14771 19.687 2.98614 19.0081C2.53041 19.0266 2.07675 19.1307 1.62292 19.1535C1.42638 19.1791 1.27301 18.856 1.41718 18.7458C1.70189 18.5282 2.5543 18.5111 2.88789 18.4852C2.44529 16.0329 3.12877 13.4184 4.29287 11.2574C3.63201 9.04228 3.37457 6.40947 3.65358 4.12832C3.81525 2.80659 4.52145 1.11368 6.11627 1.46536C8.38421 1.96545 10.612 4.48513 11.9064 6.25681C12.2577 6.1171 12.9396 5.95047 13.3144 5.87398C15.6613 5.39494 17.8134 5.53427 20.0813 6.24667C20.4147 5.80456 20.7619 5.37314 21.1227 4.95305C22.2796 3.61962 24.3255 1.56062 26.193 1.43008Z" fill="black"/>
<path d="M5.71435 2.33198C7.34686 2.38377 9.52106 4.71399 10.4909 5.89417C10.6576 6.09705 11.4446 7.19349 11.6183 7.25754C11.7225 7.29596 12.256 7.08659 12.3847 7.04692C13.2606 6.77563 14.1645 6.60509 15.0789 6.53857C16.3711 6.43759 17.6709 6.54381 18.9293 6.85322C19.1877 6.9175 19.4435 6.9913 19.6964 7.07444C19.8832 7.13464 20.0788 7.20518 20.2704 7.24436C20.3649 7.26366 20.3964 7.25579 20.4728 7.18243C20.6274 7.03411 20.7753 6.81865 20.9057 6.64586C21.0887 6.40304 21.276 6.1634 21.4675 5.9271C22.1106 5.13171 25.8417 1.00107 26.9846 2.77177C27.8799 4.15872 27.5594 7.53023 27.2748 9.11977C27.1991 9.54518 27.1119 9.96851 27.0138 10.3893C26.9393 10.6947 26.8387 11.0271 26.7759 11.3299C26.9241 11.694 27.2285 12.1897 27.4106 12.6135C28.217 14.4885 28.5859 16.4105 28.2454 18.4404C27.0253 18.4349 25.4056 18.5655 24.2162 18.9932C24.0052 19.069 24.0837 19.4255 24.3305 19.3849C24.6952 19.325 25.0524 19.2259 25.4206 19.1664C26.3169 19.0191 27.2247 18.9536 28.1329 18.9707C27.9942 19.5612 27.8118 20.0191 27.5629 20.5639C26.594 20.3219 25.6063 20.1635 24.6105 20.0903C24.4951 20.0819 23.7991 19.9549 23.9781 20.3963C23.986 20.4159 24.057 20.4848 24.0718 20.4869C24.5277 20.5545 24.985 20.5983 25.4419 20.6671C26.0735 20.7606 26.701 20.8814 27.3222 21.0293C26.9979 21.5808 26.7893 21.8714 26.4006 22.379C25.835 22.022 24.5195 21.2805 23.7686 21.1255C23.643 21.0997 23.4323 21.3767 23.7006 21.5157C24.0244 21.6838 24.3895 21.822 24.7252 21.9885C25.1863 22.223 25.6347 22.4815 26.0687 22.7629C21.5833 27.9284 10.4291 27.939 5.94827 22.7579C6.44143 22.4354 6.95493 22.1451 7.48558 21.8889C7.73624 21.7696 7.99328 21.6615 8.25337 21.5457C8.47436 21.4472 8.48116 21.2081 8.26372 21.138C8.14753 21.1005 7.85686 21.238 7.72358 21.2879C6.97749 21.567 6.28823 21.9448 5.62008 22.3759C5.29563 21.9976 4.93466 21.4616 4.70387 21.0233C5.45438 20.8545 6.08689 20.7324 6.85072 20.6238C7.05095 20.5945 7.25178 20.5697 7.45306 20.5491C7.5405 20.5405 7.77862 20.5244 7.85297 20.509C7.90933 20.4971 7.95946 20.4652 7.99404 20.4191C8.0662 20.3246 8.05901 20.1808 7.95131 20.1128C7.87184 20.0611 7.77645 20.0684 7.68684 20.0721C6.58047 20.1178 5.53227 20.3118 4.4536 20.5564C4.20372 20.0189 4.02082 19.5503 3.88275 18.9705C5.05446 18.9544 6.29607 19.0659 7.43444 19.3456C7.53624 19.3671 7.71678 19.4331 7.80789 19.3496C8.20624 18.9843 7.31026 18.8472 7.14319 18.8084C6.03851 18.5422 4.90401 18.4201 3.76795 18.4451C3.42768 16.4919 3.77738 14.5745 4.53971 12.7594C4.66178 12.473 4.79537 12.1916 4.94011 11.916C5.03431 11.7332 5.16266 11.5121 5.22872 11.3223C4.90364 10.1952 4.67203 9.04328 4.53625 7.87812C4.41346 6.78371 4.09902 2.49005 5.71435 2.33198Z" fill="black"/>
<path d="M6.30849 4.47898C6.72862 4.46183 7.12714 4.83024 7.43219 5.06895C7.80624 5.36169 9.5133 7.04669 9.54072 7.37689C9.43736 7.49652 8.75212 7.86352 8.54868 8.00257C8.24609 8.20938 8.00689 8.38209 7.71204 8.61411C7.44446 8.83289 7.18842 9.06542 6.94496 9.31076C6.78729 9.46905 6.50617 9.79476 6.33757 9.90346C6.30581 9.90131 6.27948 9.89952 6.25144 9.88211C6.19789 9.84884 6.17614 9.79319 6.15912 9.73567C6.08889 9.49822 6.05925 9.23267 6.01789 8.98866C5.86344 8.07745 5.49047 5.57381 5.93375 4.76506C6.02157 4.60485 6.13715 4.53093 6.30849 4.47898Z" fill="black"/>
<path d="M25.5418 4.479C26.179 4.44631 26.2356 5.25002 26.2533 5.72372C26.3004 6.99514 26.1056 8.28075 25.884 9.52876C25.8556 9.68835 25.8598 9.86029 25.6731 9.89171C25.5337 9.84083 25.2606 9.51863 25.14 9.39603C24.9049 9.15388 24.6583 8.92309 24.401 8.7045C23.912 8.31505 23.4515 7.96652 22.8996 7.66896C22.7788 7.60388 22.5141 7.4806 22.4707 7.37278C22.4755 7.31582 22.494 7.23906 22.5297 7.19558C23.1258 6.47246 24.6366 4.69801 25.5418 4.479Z" fill="black"/>
</svg>
